<!DOCTYPE svg PUBLIC "-//W3C//DTD SVG 1.1//EN" "http://www.w3.org/Graphics/SVG/1.1/DTD/svg11.dtd">
<!-- Uploaded to: SVG Repo, www.svgrepo.com, Transformed by: SVG Repo Mixer Tools -->
<svg width="256px" height="256px" viewBox="-2.4 -2.4 28.80 28.80" fill="none" xmlns="http://www.w3.org/2000/svg" stroke="#000000">
<g id="SVGRepo_bgCarrier" stroke-width="0" transform="translate(0,0), scale(1)">
<rect x="-2.4" y="-2.4" width="28.80" height="28.80" rx="14.4" fill="#222a29" strokewidth="0"/>
</g>
<g id="SVGRepo_tracerCarrier" stroke-linecap="round" stroke-linejoin="round" stroke="#ff0000" stroke-width="0.144"/>
<g id="SVGRepo_iconCarrier"> <path d="M13.5 3H12H8C6.34315 3 5 4.34315 5 6V18C5 19.6569 6.34315 21 8 21H16C17.6569 21 19 19.6569 19 18V10.8125V8.625M13.5 3L19 8.625M13.5 3V7.625C13.5 8.17728 13.9477 8.625 14.5 8.625H19" stroke="#25a400" stroke-width="2" stroke-linecap="round" stroke-linejoin="round"/> <path d="M10 12L8 14L10 16" stroke="#25a400" stroke-width="2" stroke-linecap="round" stroke-linejoin="round"/> <path d="M14 12L16 14L14 16" stroke="#25a400" stroke-width="2" stroke-linecap="round" stroke-linejoin="round"/> </g>
</svg>